<svg xmlns="http://www.w3.org/2000/svg" x="0px" y="0px" width="256" height="256" viewBox="0 0 64 64" style=" fill:#000000;">
  <linearGradient id="9GlNHZFIADY~jNIljsUUda_52546_gr1" x1="32" x2="32" y1="51.375" y2="54.884" gradientUnits="userSpaceOnUse" spreadMethod="reflect">
    <stop offset="0" stop-color="#6dc7ff"></stop>
    <stop offset="1" stop-color="#e6abff"></stop>
  </linearGradient>
  <path fill="url(#9GlNHZFIADY~jNIljsUUda_52546_gr1)" d="M13 52H51V54H13z"></path>
  <linearGradient id="9GlNHZFIADY~jNIljsUUdb_52546_gr2" x1="32" x2="32" y1="9.938" y2="12.133" gradientUnits="userSpaceOnUse" spreadMethod="reflect">
    <stop offset="0" stop-color="#6dc7ff"></stop>
    <stop offset="1" stop-color="#e6abff"></stop>
  </linearGradient>
  <path fill="url(#9GlNHZFIADY~jNIljsUUdb_52546_gr2)" d="M13 10H51V12H13z"></path>
  <linearGradient id="9GlNHZFIADY~jNIljsUUdc_52546_gr3" x1="32" x2="32" y1="5.5" y2="58.139" gradientUnits="userSpaceOnUse" spreadMethod="reflect">
    <stop offset="0" stop-color="#1a6dff"></stop>
    <stop offset="1" stop-color="#c822ff"></stop>
  </linearGradient>
  <path fill="url(#9GlNHZFIADY~jNIljsUUdc_52546_gr3)" d="M50.893,16H52c1.654,0,3-1.346,3-3V9c0-1.654-1.346-3-3-3H12c-1.654,0-3,1.346-3,3v4 c0,1.654,1.346,3,3,3h1.107c0.787,7.484,5.94,13.674,12.855,16c-6.915,2.326-12.068,8.516-12.855,16H12c-1.654,0-3,1.346-3,3v4 c0,1.654,1.346,3,3,3h40c1.654,0,3-1.346,3-3v-4c0-1.654-1.346-3-3-3h-1.107c-0.787-7.484-5.94-13.674-12.855-16 C44.952,29.674,50.105,23.484,50.893,16z M12,14c-0.552,0-1-0.448-1-1V9c0-0.552,0.448-1,1-1h40c0.552,0,1,0.448,1,1v4 c0,0.552-0.448,1-1,1h-1h-2H15h-2H12z M52,50c0.552,0,1,0.448,1,1v4c0,0.552-0.448,1-1,1H12c-0.552,0-1-0.448-1-1v-4 c0-0.552,0.448-1,1-1h1h2h34h2H52z M48.872,48H15.128C16.123,39.567,23.304,33,32,33S47.877,39.567,48.872,48z M33,30.949V27h-2 v3.949C25.779,30.644,21.192,27.98,18.283,24H23v-2h-5.992c-0.344-0.641-0.634-1.313-0.894-2H27v-2H15.495 c-0.159-0.654-0.287-1.319-0.367-2h33.743C47.916,24.106,41.24,30.466,33,30.949z"></path>
  <linearGradient id="9GlNHZFIADY~jNIljsUUdd_52546_gr4" x1="32" x2="32" y1="36.75" y2="44.661" gradientUnits="userSpaceOnUse" spreadMethod="reflect">
    <stop offset="0" stop-color="#6dc7ff"></stop>
    <stop offset="1" stop-color="#e6abff"></stop>
  </linearGradient>
  <path fill="url(#9GlNHZFIADY~jNIljsUUdd_52546_gr4)" d="M43.54,44c-2.17-4.16-6.53-7-11.54-7s-9.37,2.84-11.54,7H43.54z"></path>
</svg>
